<?xml version="1.0" encoding="UTF-8" standalone="no"?>
<!DOCTYPE svg PUBLIC "-//W3C//DTD SVG 1.1//EN"
 "http://www.w3.org/Graphics/SVG/1.1/DTD/svg11.dtd">
<!-- Generated by graphviz version 2.38.0 (20140413.2041)
 -->
<!-- Title: GraphFor__wp_unslash_WP_REST_Users_Controller__create_item Pages: 1 -->
<svg width="100%" height="100%" viewBox="0.00 0.00 1346.50 1703.00" xmlns="http://www.w3.org/2000/svg" xmlns:xlink="http://www.w3.org/1999/xlink">
<script type="text/ecmascript"><![CDATA[
/**
 *  SVGPan library 1.2.2
 * ======================
 *
 * Given an unique existing element with id "viewport" (or when missing, the
 * first g-element), including the library into any SVG adds the following
 * capabilities:
 *
 *  - Mouse panning
 *  - Mouse zooming (using the wheel)
 *  - Object dragging
 *
 * You can configure the behaviour of the pan/zoom/drag with the variables
 * listed in the CONFIGURATION section of this file.
 *
 * Known issues:
 *
 *  - Zooming (while panning) on Safari has still some issues
 *
 * Releases:
 *
 * 1.2.2, Tue Aug 30 17:21:56 CEST 2011, Andrea Leofreddi
 *	- Fixed viewBox on root tag (#7)
 *	- Improved zoom speed (#2)
 *
 * 1.2.1, Mon Jul  4 00:33:18 CEST 2011, Andrea Leofreddi
 *	- Fixed a regression with mouse wheel (now working on Firefox 5)
 *	- Working with viewBox attribute (#4)
 *	- Added "use strict;" and fixed resulting warnings (#5)
 *	- Added configuration variables, dragging is disabled by default (#3)
 *
 * 1.2, Sat Mar 20 08:42:50 GMT 2010, Zeng Xiaohui
 *	Fixed a bug with browser mouse handler interaction
 *
 * 1.1, Wed Feb  3 17:39:33 GMT 2010, Zeng Xiaohui
 *	Updated the zoom code to support the mouse wheel on Safari/Chrome
 *
 * 1.0, Andrea Leofreddi
 *	First release
 *
 * This code is licensed under the following BSD license:
 *
 * Copyright 2009-2017 Andrea Leofreddi <a.leofreddi@vleo.net>. All rights reserved.
 *
 * Redistribution and use in source and binary forms, with or without modification, are
 * permitted provided that the following conditions are met:
 *
 *    1. Redistributions of source code must retain the above copyright
 *       notice, this list of conditions and the following disclaimer.
 *    2. Redistributions in binary form must reproduce the above copyright
 *       notice, this list of conditions and the following disclaimer in the
 *       documentation and/or other materials provided with the distribution.
 *    3. Neither the name of the copyright holder nor the names of its
 *       contributors may be used to endorse or promote products derived from
 *       this software without specific prior written permission.
 *
 * THIS SOFTWARE IS PROVIDED BY COPYRIGHT HOLDERS AND CONTRIBUTORS ''AS IS'' AND ANY EXPRESS
 * OR IMPLIED WARRANTIES, INCLUDING, BUT NOT LIMITED TO, THE IMPLIED WARRANTIES OF MERCHANTABILITY
 * AND FITNESS FOR A PARTICULAR PURPOSE ARE DISCLAIMED. IN NO EVENT SHALL COPYRIGHT HOLDERS OR
 * CONTRIBUTORS BE LIABLE FOR ANY DIRECT, INDIRECT, INCIDENTAL, SPECIAL, EXEMPLARY, OR
 * CONSEQUENTIAL DAMAGES (INCLUDING, BUT NOT LIMITED TO, PROCUREMENT OF SUBSTITUTE GOODS OR
 * SERVICES; LOSS OF USE, DATA, OR PROFITS; OR BUSINESS INTERRUPTION) HOWEVER CAUSED AND ON
 * ANY THEORY OF LIABILITY, WHETHER IN CONTRACT, STRICT LIABILITY, OR TORT (INCLUDING
 * NEGLIGENCE OR OTHERWISE) ARISING IN ANY WAY OUT OF THE USE OF THIS SOFTWARE, EVEN IF
 * ADVISED OF THE POSSIBILITY OF SUCH DAMAGE.
 *
 * The views and conclusions contained in the software and documentation are those of the
 * authors and should not be interpreted as representing official policies, either expressed
 * or implied, of Andrea Leofreddi.
 */

"use strict";

/// CONFIGURATION
/// ====>

var enablePan = 1; // 1 or 0: enable or disable panning (default enabled)
var enableZoom = 1; // 1 or 0: enable or disable zooming (default enabled)
var enableDrag = 0; // 1 or 0: enable or disable dragging (default disabled)
var zoomScale = 0.5; // Zoom sensitivity

/// <====
/// END OF CONFIGURATION

var root = document.documentElement;

var state = 'none', svgRoot = null, stateTarget, stateOrigin, stateTf;

setupHandlers(root);

/**
 * Register handlers
 */
function setupHandlers(root){
	setAttributes(root, {
		"onmouseup" : "handleMouseUp(evt)",
		"onmousedown" : "handleMouseDown(evt)",
		"onmousemove" : "handleMouseMove(evt)",
		//"onmouseout" : "handleMouseUp(evt)", // Decomment this to stop the pan functionality when dragging out of the SVG element
	});

	if(navigator.userAgent.toLowerCase().indexOf('webkit') >= 0)
		window.addEventListener('mousewheel', handleMouseWheel, false); // Chrome/Safari
	else
		window.addEventListener('DOMMouseScroll', handleMouseWheel, false); // Others
}

/**
 * Retrieves the root element for SVG manipulation. The element is then cached into the svgRoot global variable.
 */
function getRoot(root) {
	if(svgRoot == null) {
		var r = root.getElementById("viewport") ? root.getElementById("viewport") : root.documentElement, t = r;

		while(t != root) {
			if(t.getAttribute("viewBox")) {
				setCTM(r, t.getCTM());

				t.removeAttribute("viewBox");
			}

			t = t.parentNode;
		}

		svgRoot = r;
	}

	return svgRoot;
}

/**
 * Instance an SVGPoint object with given event coordinates.
 */
function getEventPoint(evt) {
	var p = root.createSVGPoint();

	p.x = evt.clientX;
	p.y = evt.clientY;

	return p;
}

/**
 * Sets the current transform matrix of an element.
 */
function setCTM(element, matrix) {
	var s = "matrix(" + matrix.a + "," + matrix.b + "," + matrix.c + "," + matrix.d + "," + matrix.e + "," + matrix.f + ")";

	element.setAttribute("transform", s);
}

/**
 * Dumps a matrix to a string (useful for debug).
 */
function dumpMatrix(matrix) {
	var s = "[ " + matrix.a + ", " + matrix.c + ", " + matrix.e + "\n  " + matrix.b + ", " + matrix.d + ", " + matrix.f + "\n  0, 0, 1 ]";

	return s;
}

/**
 * Sets attributes of an element.
 */
function setAttributes(element, attributes){
	for (var i in attributes)
		element.setAttributeNS(null, i, attributes[i]);
}

/**
 * Handle mouse wheel event.
 */
function handleMouseWheel(evt) {
	if(!enableZoom)
		return;

	if(evt.preventDefault)
		evt.preventDefault();

	evt.returnValue = false;

	var svgDoc = evt.target.ownerDocument;

	var delta;

	if(evt.wheelDelta)
		delta = evt.wheelDelta / 360; // Chrome/Safari
	else
		delta = evt.detail / -9; // Mozilla

	var z = Math.pow(1 + zoomScale, delta);

	var g = getRoot(svgDoc);
	
	var p = getEventPoint(evt);

	p = p.matrixTransform(g.getCTM().inverse());

	// Compute new scale matrix in current mouse position
	var k = root.createSVGMatrix().translate(p.x, p.y).scale(z).translate(-p.x, -p.y);

        setCTM(g, g.getCTM().multiply(k));

	if(typeof(stateTf) == "undefined")
		stateTf = g.getCTM().inverse();

	stateTf = stateTf.multiply(k.inverse());
}

/**
 * Handle mouse move event.
 */
function handleMouseMove(evt) {
	if(evt.preventDefault)
		evt.preventDefault();

	evt.returnValue = false;

	var svgDoc = evt.target.ownerDocument;

	var g = getRoot(svgDoc);

	if(state == 'pan' && enablePan) {
		// Pan mode
		var p = getEventPoint(evt).matrixTransform(stateTf);

		setCTM(g, stateTf.inverse().translate(p.x - stateOrigin.x, p.y - stateOrigin.y));
	} else if(state == 'drag' && enableDrag) {
		// Drag mode
		var p = getEventPoint(evt).matrixTransform(g.getCTM().inverse());

		setCTM(stateTarget, root.createSVGMatrix().translate(p.x - stateOrigin.x, p.y - stateOrigin.y).multiply(g.getCTM().inverse()).multiply(stateTarget.getCTM()));

		stateOrigin = p;
	}
}

/**
 * Handle click event.
 */
function handleMouseDown(evt) {
	if(evt.preventDefault)
		evt.preventDefault();

	evt.returnValue = false;

	var svgDoc = evt.target.ownerDocument;

	var g = getRoot(svgDoc);

	if(
		evt.target.tagName == "svg"
		|| !enableDrag // Pan anyway when drag is disabled and the user clicked on an element
	) {
		// Pan mode
		state = 'pan';

		stateTf = g.getCTM().inverse();

		stateOrigin = getEventPoint(evt).matrixTransform(stateTf);
	} else {
		// Drag mode
		state = 'drag';

		stateTarget = evt.target;

		stateTf = g.getCTM().inverse();

		stateOrigin = getEventPoint(evt).matrixTransform(stateTf);
	}
}

/**
 * Handle mouse button release event.
 */
function handleMouseUp(evt) {
	if(evt.preventDefault)
		evt.preventDefault();

	evt.returnValue = false;

	var svgDoc = evt.target.ownerDocument;

	if(state == 'pan' || state == 'drag') {
		// Quit pan mode
		state = '';
	}
}
]]></script>

<g id="viewport" transform="scale(0.5,0.5) translate(0,0)">
<g id="graph0" class="graph" transform="scale(1 1) rotate(0) translate(144 1559)">
<title>GraphFor__wp_unslash_WP_REST_Users_Controller__create_item</title>
<polygon fill="white" stroke="none" points="-144,144 -144,-1559 1202.5,-1559 1202.5,144 -144,144"/>
<text text-anchor="middle" x="529.25" y="-7.8" font-family="Times New Roman,serif" font-size="14.00">Function \wp_unslash reachability from \WP_REST_Users_Controller::create_item</text>
<!-- _wp_unslash -->
<g id="node1" class="node"><title>_wp_unslash</title>
<polygon fill="#eddbd5" stroke="#b22f00" points="755,-61 607,-61 607,-23 755,-23 755,-61"/>
<text text-anchor="middle" x="681" y="-35.4" font-family="Times New Roman,serif" font-size="27.00">\wp_unslash</text>
</g>
<!-- _add_user_to_blog -->
<g id="node2" class="node"><title>_add_user_to_blog</title>
<polygon fill="#ede3dc" stroke="#b27540" points="595.5,-951 468.5,-951 468.5,-915 595.5,-915 595.5,-951"/>
<text text-anchor="middle" x="532" y="-929.5" font-family="Times New Roman,serif" font-size="15.00">\add_user_to_blog</text>
</g>
<!-- _WP_User__set_role -->
<g id="node6" class="node"><title>_WP_User__set_role</title>
<polygon fill="#ede3dc" stroke="#b27540" points="709.5,-807 622.5,-807 622.5,-761 709.5,-761 709.5,-807"/>
<text text-anchor="middle" x="666" y="-789.4" font-family="Times New Roman,serif" font-size="17.00">\WP_User</text>
<text text-anchor="middle" x="666" y="-770.4" font-family="Times New Roman,serif" font-size="17.00">set_role</text>
</g>
<!-- _add_user_to_blog&#45;&gt;_WP_User__set_role -->
<g id="edge16" class="edge"><title>_add_user_to_blog&#45;&gt;_WP_User__set_role</title>
<path fill="none" stroke="#b2ac9f" d="M547.634,-914.85C569.942,-890.377 611.237,-845.076 638.668,-814.983"/>
<polygon fill="#b2ac9f" stroke="#b2ac9f" points="641.516,-817.054 645.666,-807.306 636.343,-812.339 641.516,-817.054"/>
</g>
<!-- _update_user_meta -->
<g id="node18" class="node"><title>_update_user_meta</title>
<polygon fill="#eddbd5" stroke="#b22f00" points="808.5,-496 647.5,-496 647.5,-460 808.5,-460 808.5,-496"/>
<text text-anchor="middle" x="728" y="-473.3" font-family="Times New Roman,serif" font-size="19.00">\update_user_meta</text>
</g>
<!-- _add_user_to_blog&#45;&gt;_update_user_meta -->
<g id="edge6" class="edge"><title>_add_user_to_blog&#45;&gt;_update_user_meta</title>
<path fill="none" stroke="#b2ac9f" d="M528.086,-914.735C517.508,-863.82 492.83,-711.315 550,-607 577.637,-556.573 634.645,-521.086 676.733,-500.468"/>
<polygon fill="#b2ac9f" stroke="#b2ac9f" points="678.488,-503.509 686.007,-496.045 675.475,-497.191 678.488,-503.509"/>
</g>
<!-- _add_metadata -->
<g id="node3" class="node"><title>_add_metadata</title>
<polygon fill="#ede3dc" stroke="#b27540" points="653,-205 551,-205 551,-169 653,-169 653,-205"/>
<text text-anchor="middle" x="602" y="-183.5" font-family="Times New Roman,serif" font-size="15.00">\add_metadata</text>
</g>
<!-- _add_metadata&#45;&gt;_wp_unslash -->
<g id="edge36" class="edge"><title>_add_metadata&#45;&gt;_wp_unslash</title>
<path fill="none" stroke="#b2ac9f" d="M611.529,-168.751C625.082,-144.218 650.056,-99.013 666.077,-70.0118"/>
<polygon fill="#b2ac9f" stroke="#b2ac9f" points="669.167,-71.6576 670.939,-61.212 663.04,-68.2726 669.167,-71.6576"/>
</g>
<!-- _delete_metadata -->
<g id="node4" class="node"><title>_delete_metadata</title>
<polygon fill="#ede3dc" stroke="#b27540" points="352,-349 220,-349 220,-313 352,-313 352,-349"/>
<text text-anchor="middle" x="286" y="-326.9" font-family="Times New Roman,serif" font-size="17.00">\delete_metadata</text>
</g>
<!-- _delete_metadata&#45;&gt;_wp_unslash -->
<g id="edge22" class="edge"><title>_delete_metadata&#45;&gt;_wp_unslash</title>
<path fill="none" stroke="#b2ac9f" d="M309.526,-312.906C376.694,-264.104 569.515,-124.003 647.584,-67.2795"/>
<polygon fill="#b2ac9f" stroke="#b2ac9f" points="650.052,-69.8123 656.085,-61.1027 645.938,-64.1493 650.052,-69.8123"/>
</g>
<!-- _WP_REST_Users_Controller__create_item -->
<g id="node5" class="node"><title>_WP_REST_Users_Controller__create_item</title>
<polygon fill="#eddbd5" stroke="#b22f00" points="722,-1415 384,-1415 384,-1347 722,-1347 722,-1415"/>
<text text-anchor="middle" x="553" y="-1389.4" font-family="Times New Roman,serif" font-size="27.00">\WP_REST_Users_Controller</text>
<text text-anchor="middle" x="553" y="-1359.4" font-family="Times New Roman,serif" font-size="27.00">create_item</text>
</g>
<!-- _WP_REST_Users_Controller__create_item&#45;&gt;_add_user_to_blog -->
<g id="edge5" class="edge"><title>_WP_REST_Users_Controller__create_item&#45;&gt;_add_user_to_blog</title>
<path fill="none" stroke="#b2ac9f" d="M551.439,-1346.84C547.453,-1262.2 536.96,-1039.33 533.289,-961.386"/>
<polygon fill="#b2ac9f" stroke="#b2ac9f" points="536.785,-961.204 532.818,-951.379 529.793,-961.533 536.785,-961.204"/>
</g>
<!-- _wp_insert_user -->
<g id="node7" class="node"><title>_wp_insert_user</title>
<polygon fill="#eddbd5" stroke="#b22f00" points="762.5,-951 613.5,-951 613.5,-915 762.5,-915 762.5,-951"/>
<text text-anchor="middle" x="688" y="-927.7" font-family="Times New Roman,serif" font-size="21.00">\wp_insert_user</text>
</g>
<!-- _WP_REST_Users_Controller__create_item&#45;&gt;_wp_insert_user -->
<g id="edge12" class="edge"><title>_WP_REST_Users_Controller__create_item&#45;&gt;_wp_insert_user</title>
<path fill="none" stroke="#b2ac9f" d="M556.685,-1346.77C563.964,-1287.5 582.805,-1160.27 620,-1059 633.293,-1022.81 655.65,-984.289 671.079,-959.73"/>
<polygon fill="#b2ac9f" stroke="#b2ac9f" points="674.198,-961.349 676.62,-951.034 668.295,-957.587 674.198,-961.349"/>
</g>
<!-- _wpmu_create_user -->
<g id="node9" class="node"><title>_wpmu_create_user</title>
<polygon fill="#ede3dc" stroke="#b27540" points="367,-1239 235,-1239 235,-1203 367,-1203 367,-1239"/>
<text text-anchor="middle" x="301" y="-1217.5" font-family="Times New Roman,serif" font-size="15.00">\wpmu_create_user</text>
</g>
<!-- _WP_REST_Users_Controller__create_item&#45;&gt;_wpmu_create_user -->
<g id="edge3" class="edge"><title>_WP_REST_Users_Controller__create_item&#45;&gt;_wpmu_create_user</title>
<path fill="none" stroke="#b2ac9f" d="M500.173,-1346.88C451.127,-1316.13 379.445,-1271.18 336.782,-1244.43"/>
<polygon fill="#b2ac9f" stroke="#b2ac9f" points="338.468,-1241.36 328.137,-1239.01 334.75,-1247.29 338.468,-1241.36"/>
</g>
<!-- _WP_REST_Meta_Fields__update_value -->
<g id="node10" class="node"><title>_WP_REST_Meta_Fields__update_value</title>
<polygon fill="#ede3dc" stroke="#b27540" points="488.5,-653 297.5,-653 297.5,-607 488.5,-607 488.5,-653"/>
<text text-anchor="middle" x="393" y="-635.4" font-family="Times New Roman,serif" font-size="17.00">\WP_REST_Meta_Fields</text>
<text text-anchor="middle" x="393" y="-616.4" font-family="Times New Roman,serif" font-size="17.00">update_value</text>
</g>
<!-- _WP_REST_Users_Controller__create_item&#45;&gt;_WP_REST_Meta_Fields__update_value -->
<g id="edge34" class="edge"><title>_WP_REST_Users_Controller__create_item&#45;&gt;_WP_REST_Meta_Fields__update_value</title>
<path fill="none" stroke="#b2ac9f" d="M521.784,-1346.75C475.738,-1294.08 395,-1186.29 395,-1078 395,-1078 395,-1078 395,-932 395,-834.261 393.932,-718.674 393.357,-663.487"/>
<polygon fill="#b2ac9f" stroke="#b2ac9f" points="396.855,-663.241 393.249,-653.279 389.855,-663.315 396.855,-663.241"/>
</g>
<!-- _wp_update_user -->
<g id="node13" class="node"><title>_wp_update_user</title>
<polygon fill="#ede3dc" stroke="#b27540" points="747,-1095 629,-1095 629,-1059 747,-1059 747,-1095"/>
<text text-anchor="middle" x="688" y="-1073.5" font-family="Times New Roman,serif" font-size="15.00">\wp_update_user</text>
</g>
<!-- _WP_REST_Users_Controller__create_item&#45;&gt;_wp_update_user -->
<g id="edge29" class="edge"><title>_WP_REST_Users_Controller__create_item&#45;&gt;_wp_update_user</title>
<path fill="none" stroke="#b2ac9f" d="M567.834,-1346.82C594.851,-1286.38 651.562,-1159.51 676.178,-1104.45"/>
<polygon fill="#b2ac9f" stroke="#b2ac9f" points="679.501,-1105.59 680.387,-1095.03 673.111,-1102.73 679.501,-1105.59"/>
</g>
<!-- _WP_User__update_user_level_from_caps -->
<g id="node12" class="node"><title>_WP_User__update_user_level_from_caps</title>
<polygon fill="#ede7e2" stroke="#b28a60" points="730.5,-648 559.5,-648 559.5,-612 730.5,-612 730.5,-648"/>
<text text-anchor="middle" x="645" y="-633.6" font-family="Times New Roman,serif" font-size="13.00">\WP_User</text>
<text text-anchor="middle" x="645" y="-619.6" font-family="Times New Roman,serif" font-size="13.00">update_user_level_from_caps</text>
</g>
<!-- _WP_User__set_role&#45;&gt;_WP_User__update_user_level_from_caps -->
<g id="edge31" class="edge"><title>_WP_User__set_role&#45;&gt;_WP_User__update_user_level_from_caps</title>
<path fill="none" stroke="#b2ac9f" d="M662.946,-760.898C659.198,-733.765 652.84,-687.749 648.785,-658.397"/>
<polygon fill="#b2ac9f" stroke="#b2ac9f" points="652.24,-657.83 647.404,-648.403 645.306,-658.788 652.24,-657.83"/>
</g>
<!-- _WP_User__set_role&#45;&gt;_update_user_meta -->
<g id="edge11" class="edge"><title>_WP_User__set_role&#45;&gt;_update_user_meta</title>
<path fill="none" stroke="#b2ac9f" d="M683.346,-760.611C701.32,-735.87 728.258,-694.069 739,-653 752.258,-602.312 742.558,-540.621 734.885,-505.979"/>
<polygon fill="#b2ac9f" stroke="#b2ac9f" points="738.271,-505.086 732.597,-496.139 731.453,-506.672 738.271,-505.086"/>
</g>
<!-- _wp_insert_user&#45;&gt;_wp_unslash -->
<g id="edge2" class="edge"><title>_wp_insert_user&#45;&gt;_wp_unslash</title>
<path fill="none" stroke="#b2ac9f" d="M703.664,-914.834C741.919,-871.052 837,-750.242 837,-631 837,-631 837,-631 837,-330 837,-222.021 750.706,-115.903 706.481,-68.6072"/>
<polygon fill="#b2ac9f" stroke="#b2ac9f" points="708.932,-66.106 699.508,-61.2651 703.856,-70.9265 708.932,-66.106"/>
</g>
<!-- _wp_insert_user&#45;&gt;_WP_User__set_role -->
<g id="edge9" class="edge"><title>_wp_insert_user&#45;&gt;_WP_User__set_role</title>
<path fill="none" stroke="#b2ac9f" d="M685.433,-914.85C681.864,-891.002 675.335,-847.376 670.837,-817.318"/>
<polygon fill="#b2ac9f" stroke="#b2ac9f" points="674.28,-816.678 669.338,-807.306 667.357,-817.714 674.28,-816.678"/>
</g>
<!-- _wp_insert_user&#45;&gt;_update_user_meta -->
<g id="edge32" class="edge"><title>_wp_insert_user&#45;&gt;_update_user_meta</title>
<path fill="none" stroke="#b2ac9f" d="M695.626,-914.93C716.191,-866.937 770.37,-726.52 757,-607 753.037,-571.574 743.087,-531.644 735.948,-505.945"/>
<polygon fill="#b2ac9f" stroke="#b2ac9f" points="739.275,-504.848 733.18,-496.182 732.541,-506.757 739.275,-504.848"/>
</g>
<!-- _WP_Session_Tokens__create -->
<g id="node8" class="node"><title>_WP_Session_Tokens__create</title>
<polygon fill="#ede3dc" stroke="#b27540" points="1011,-651 865,-651 865,-609 1011,-609 1011,-651"/>
<text text-anchor="middle" x="938" y="-635" font-family="Times New Roman,serif" font-size="15.00">\WP_Session_Tokens</text>
<text text-anchor="middle" x="938" y="-618" font-family="Times New Roman,serif" font-size="15.00">create</text>
</g>
<!-- _WP_Session_Tokens__create&#45;&gt;_wp_unslash -->
<g id="edge10" class="edge"><title>_WP_Session_Tokens__create&#45;&gt;_wp_unslash</title>
<path fill="none" stroke="#b2ac9f" d="M939.162,-608.775C942.094,-540.88 943.814,-317.059 851,-169 821.736,-122.318 768.414,-87.0875 729.266,-65.9132"/>
<polygon fill="#b2ac9f" stroke="#b2ac9f" points="730.621,-62.6703 720.144,-61.093 727.35,-68.8594 730.621,-62.6703"/>
</g>
<!-- _wp_create_user -->
<g id="node16" class="node"><title>_wp_create_user</title>
<polygon fill="#ede7e2" stroke="#b28a60" points="524.5,-1095 423.5,-1095 423.5,-1059 524.5,-1059 524.5,-1095"/>
<text text-anchor="middle" x="474" y="-1073.6" font-family="Times New Roman,serif" font-size="13.00">\wp_create_user</text>
</g>
<!-- _wpmu_create_user&#45;&gt;_wp_create_user -->
<g id="edge17" class="edge"><title>_wpmu_create_user&#45;&gt;_wp_create_user</title>
<path fill="none" stroke="#b2ac9f" d="M321.868,-1202.87C352.651,-1177.6 410.338,-1130.25 445.152,-1101.68"/>
<polygon fill="#b2ac9f" stroke="#b2ac9f" points="447.549,-1104.24 453.058,-1095.19 443.108,-1098.83 447.549,-1104.24"/>
</g>
<!-- _delete_user_option -->
<g id="node19" class="node"><title>_delete_user_option</title>
<polygon fill="#ede7e2" stroke="#b28a60" points="296,-1095 176,-1095 176,-1059 296,-1059 296,-1095"/>
<text text-anchor="middle" x="236" y="-1073.6" font-family="Times New Roman,serif" font-size="13.00">\delete_user_option</text>
</g>
<!-- _wpmu_create_user&#45;&gt;_delete_user_option -->
<g id="edge33" class="edge"><title>_wpmu_create_user&#45;&gt;_delete_user_option</title>
<path fill="none" stroke="#b2ac9f" d="M293.159,-1202.87C281.984,-1178.46 261.371,-1133.43 248.192,-1104.64"/>
<polygon fill="#b2ac9f" stroke="#b2ac9f" points="251.213,-1102.83 243.868,-1095.19 244.848,-1105.74 251.213,-1102.83"/>
</g>
<!-- _WP_REST_Meta_Fields__update_meta_value -->
<g id="node17" class="node"><title>_WP_REST_Meta_Fields__update_meta_value</title>
<polygon fill="#ede7e2" stroke="#b28a60" points="629.5,-496 482.5,-496 482.5,-460 629.5,-460 629.5,-496"/>
<text text-anchor="middle" x="556" y="-481.6" font-family="Times New Roman,serif" font-size="13.00">\WP_REST_Meta_Fields</text>
<text text-anchor="middle" x="556" y="-467.6" font-family="Times New Roman,serif" font-size="13.00">update_meta_value</text>
</g>
<!-- _WP_REST_Meta_Fields__update_value&#45;&gt;_WP_REST_Meta_Fields__update_meta_value -->
<g id="edge19" class="edge"><title>_WP_REST_Meta_Fields__update_value&#45;&gt;_WP_REST_Meta_Fields__update_meta_value</title>
<path fill="none" stroke="#b2ac9f" d="M417.051,-606.867C447.257,-579.07 498.885,-531.56 529.987,-502.939"/>
<polygon fill="#b2ac9f" stroke="#b2ac9f" points="532.437,-505.44 537.426,-496.093 527.697,-500.289 532.437,-505.44"/>
</g>
<!-- _WP_REST_Meta_Fields__delete_meta_value -->
<g id="node21" class="node"><title>_WP_REST_Meta_Fields__delete_meta_value</title>
<polygon fill="#ede7e2" stroke="#b28a60" points="277.5,-496 130.5,-496 130.5,-460 277.5,-460 277.5,-496"/>
<text text-anchor="middle" x="204" y="-481.6" font-family="Times New Roman,serif" font-size="13.00">\WP_REST_Meta_Fields</text>
<text text-anchor="middle" x="204" y="-467.6" font-family="Times New Roman,serif" font-size="13.00">delete_meta_value</text>
</g>
<!-- _WP_REST_Meta_Fields__update_value&#45;&gt;_WP_REST_Meta_Fields__delete_meta_value -->
<g id="edge18" class="edge"><title>_WP_REST_Meta_Fields__update_value&#45;&gt;_WP_REST_Meta_Fields__delete_meta_value</title>
<path fill="none" stroke="#b2ac9f" d="M365.112,-606.867C329.94,-578.952 269.717,-531.157 233.706,-502.576"/>
<polygon fill="#b2ac9f" stroke="#b2ac9f" points="235.546,-499.568 225.537,-496.093 231.194,-505.051 235.546,-499.568"/>
</g>
<!-- _WP_REST_Meta_Fields__update_multi_meta_value -->
<g id="node22" class="node"><title>_WP_REST_Meta_Fields__update_multi_meta_value</title>
<polygon fill="#ede3dc" stroke="#b27540" points="464,-499 296,-499 296,-457 464,-457 464,-499"/>
<text text-anchor="middle" x="380" y="-483" font-family="Times New Roman,serif" font-size="15.00">\WP_REST_Meta_Fields</text>
<text text-anchor="middle" x="380" y="-466" font-family="Times New Roman,serif" font-size="15.00">update_multi_meta_value</text>
</g>
<!-- _WP_REST_Meta_Fields__update_value&#45;&gt;_WP_REST_Meta_Fields__update_multi_meta_value -->
<g id="edge8" class="edge"><title>_WP_REST_Meta_Fields__update_value&#45;&gt;_WP_REST_Meta_Fields__update_multi_meta_value</title>
<path fill="none" stroke="#b2ac9f" d="M391.082,-606.867C388.852,-581.142 385.159,-538.532 382.655,-509.637"/>
<polygon fill="#b2ac9f" stroke="#b2ac9f" points="386.11,-508.958 381.759,-499.298 379.136,-509.563 386.11,-508.958"/>
</g>
<!-- _update_metadata -->
<g id="node11" class="node"><title>_update_metadata</title>
<polygon fill="#ede3dc" stroke="#b27540" points="711,-349 573,-349 573,-313 711,-313 711,-349"/>
<text text-anchor="middle" x="642" y="-326.9" font-family="Times New Roman,serif" font-size="17.00">\update_metadata</text>
</g>
<!-- _update_metadata&#45;&gt;_wp_unslash -->
<g id="edge15" class="edge"><title>_update_metadata&#45;&gt;_wp_unslash</title>
<path fill="none" stroke="#b2ac9f" d="M645.013,-312.644C649.144,-288.537 656.66,-243.532 662,-205 668.496,-158.126 674.607,-103.418 678.068,-71.0775"/>
<polygon fill="#b2ac9f" stroke="#b2ac9f" points="681.561,-71.3245 679.137,-61.0108 674.601,-70.5853 681.561,-71.3245"/>
</g>
<!-- _update_metadata&#45;&gt;_add_metadata -->
<g id="edge35" class="edge"><title>_update_metadata&#45;&gt;_add_metadata</title>
<path fill="none" stroke="#b2ac9f" d="M637.175,-312.871C630.328,-288.564 617.724,-243.819 609.609,-215.013"/>
<polygon fill="#b2ac9f" stroke="#b2ac9f" points="612.922,-213.866 606.842,-205.189 606.185,-215.764 612.922,-213.866"/>
</g>
<!-- _WP_User__update_user_level_from_caps&#45;&gt;_update_user_meta -->
<g id="edge1" class="edge"><title>_WP_User__update_user_level_from_caps&#45;&gt;_update_user_meta</title>
<path fill="none" stroke="#b2ac9f" d="M654.521,-611.793C669.031,-585.571 696.773,-535.434 713.708,-504.829"/>
<polygon fill="#b2ac9f" stroke="#b2ac9f" points="716.811,-506.451 718.59,-496.006 710.686,-503.061 716.811,-506.451"/>
</g>
<!-- _wp_update_user&#45;&gt;_wp_insert_user -->
<g id="edge24" class="edge"><title>_wp_update_user&#45;&gt;_wp_insert_user</title>
<path fill="none" stroke="#b2ac9f" d="M688,-1058.87C688,-1034.67 688,-990.211 688,-961.393"/>
<polygon fill="#b2ac9f" stroke="#b2ac9f" points="691.5,-961.189 688,-951.189 684.5,-961.189 691.5,-961.189"/>
</g>
<!-- _wp_set_auth_cookie -->
<g id="node14" class="node"><title>_wp_set_auth_cookie</title>
<polygon fill="#ede3dc" stroke="#b27540" points="946,-951 804,-951 804,-915 946,-915 946,-951"/>
<text text-anchor="middle" x="875" y="-929.5" font-family="Times New Roman,serif" font-size="15.00">\wp_set_auth_cookie</text>
</g>
<!-- _wp_update_user&#45;&gt;_wp_set_auth_cookie -->
<g id="edge30" class="edge"><title>_wp_update_user&#45;&gt;_wp_set_auth_cookie</title>
<path fill="none" stroke="#b2ac9f" d="M710.557,-1058.87C743.972,-1033.5 806.713,-985.854 844.292,-957.318"/>
<polygon fill="#b2ac9f" stroke="#b2ac9f" points="846.516,-960.024 852.363,-951.189 842.283,-954.449 846.516,-960.024"/>
</g>
<!-- _wp_set_auth_cookie&#45;&gt;_WP_Session_Tokens__create -->
<g id="edge25" class="edge"><title>_wp_set_auth_cookie&#45;&gt;_WP_Session_Tokens__create</title>
<path fill="none" stroke="#b2ac9f" d="M875.684,-914.81C877.19,-883.762 881.697,-816.404 894,-761 901.797,-725.886 915.699,-686.979 925.794,-660.963"/>
<polygon fill="#b2ac9f" stroke="#b2ac9f" points="929.183,-661.91 929.59,-651.323 922.67,-659.345 929.183,-661.91"/>
</g>
<!-- _wp_generate_auth_cookie -->
<g id="node15" class="node"><title>_wp_generate_auth_cookie</title>
<polygon fill="#ede7e2" stroke="#b28a60" points="1058.5,-802 903.5,-802 903.5,-766 1058.5,-766 1058.5,-802"/>
<text text-anchor="middle" x="981" y="-780.6" font-family="Times New Roman,serif" font-size="13.00">\wp_generate_auth_cookie</text>
</g>
<!-- _wp_set_auth_cookie&#45;&gt;_wp_generate_auth_cookie -->
<g id="edge27" class="edge"><title>_wp_set_auth_cookie&#45;&gt;_wp_generate_auth_cookie</title>
<path fill="none" stroke="#b2ac9f" d="M887.367,-914.85C905.957,-889.069 941.215,-840.173 962.761,-810.293"/>
<polygon fill="#b2ac9f" stroke="#b2ac9f" points="965.702,-812.2 968.712,-802.041 960.024,-808.105 965.702,-812.2"/>
</g>
<!-- _wp_generate_auth_cookie&#45;&gt;_WP_Session_Tokens__create -->
<g id="edge21" class="edge"><title>_wp_generate_auth_cookie&#45;&gt;_WP_Session_Tokens__create</title>
<path fill="none" stroke="#b2ac9f" d="M976.151,-765.859C968.968,-740.468 955.396,-692.494 946.528,-661.144"/>
<polygon fill="#b2ac9f" stroke="#b2ac9f" points="949.806,-659.876 943.716,-651.207 943.071,-661.782 949.806,-659.876"/>
</g>
<!-- _wp_create_user&#45;&gt;_wp_insert_user -->
<g id="edge7" class="edge"><title>_wp_create_user&#45;&gt;_wp_insert_user</title>
<path fill="none" stroke="#b2ac9f" d="M499.813,-1058.87C538.294,-1033.34 610.76,-985.253 653.668,-956.781"/>
<polygon fill="#b2ac9f" stroke="#b2ac9f" points="655.698,-959.635 662.095,-951.189 651.827,-953.802 655.698,-959.635"/>
</g>
<!-- _WP_REST_Meta_Fields__update_meta_value&#45;&gt;_update_metadata -->
<g id="edge28" class="edge"><title>_WP_REST_Meta_Fields__update_meta_value&#45;&gt;_update_metadata</title>
<path fill="none" stroke="#b2ac9f" d="M566.203,-459.797C581.138,-434.616 609.069,-387.523 626.537,-358.072"/>
<polygon fill="#b2ac9f" stroke="#b2ac9f" points="629.719,-359.567 631.81,-349.18 623.699,-355.996 629.719,-359.567"/>
</g>
<!-- _update_user_meta&#45;&gt;_update_metadata -->
<g id="edge26" class="edge"><title>_update_user_meta&#45;&gt;_update_metadata</title>
<path fill="none" stroke="#b2ac9f" d="M717.797,-459.797C702.862,-434.616 674.931,-387.523 657.463,-358.072"/>
<polygon fill="#b2ac9f" stroke="#b2ac9f" points="660.301,-355.996 652.19,-349.18 654.281,-359.567 660.301,-355.996"/>
</g>
<!-- _delete_user_meta -->
<g id="node20" class="node"><title>_delete_user_meta</title>
<polygon fill="#ede7e2" stroke="#b28a60" points="112,-496 7.10543e-015,-496 7.10543e-015,-460 112,-460 112,-496"/>
<text text-anchor="middle" x="56" y="-474.6" font-family="Times New Roman,serif" font-size="13.00">\delete_user_meta</text>
</g>
<!-- _delete_user_option&#45;&gt;_delete_user_meta -->
<g id="edge13" class="edge"><title>_delete_user_option&#45;&gt;_delete_user_meta</title>
<path fill="none" stroke="#b2ac9f" d="M230.807,-1058.78C205.478,-974.77 94.872,-607.925 64.0177,-505.592"/>
<polygon fill="#b2ac9f" stroke="#b2ac9f" points="67.3655,-504.571 61.1277,-496.007 60.6635,-506.592 67.3655,-504.571"/>
</g>
<!-- _delete_user_meta&#45;&gt;_delete_metadata -->
<g id="edge14" class="edge"><title>_delete_user_meta&#45;&gt;_delete_metadata</title>
<path fill="none" stroke="#b2ac9f" d="M83.2872,-459.797C124.873,-433.58 204.133,-383.612 250.261,-354.531"/>
<polygon fill="#b2ac9f" stroke="#b2ac9f" points="252.156,-357.474 258.748,-349.18 248.422,-351.553 252.156,-357.474"/>
</g>
<!-- _WP_REST_Meta_Fields__delete_meta_value&#45;&gt;_delete_metadata -->
<g id="edge4" class="edge"><title>_WP_REST_Meta_Fields__delete_meta_value&#45;&gt;_delete_metadata</title>
<path fill="none" stroke="#b2ac9f" d="M213.728,-459.797C227.969,-434.616 254.601,-387.523 271.256,-358.072"/>
<polygon fill="#b2ac9f" stroke="#b2ac9f" points="274.408,-359.608 276.284,-349.18 268.315,-356.162 274.408,-359.608"/>
</g>
<!-- _WP_REST_Meta_Fields__update_multi_meta_value&#45;&gt;_add_metadata -->
<g id="edge23" class="edge"><title>_WP_REST_Meta_Fields__update_multi_meta_value&#45;&gt;_add_metadata</title>
<path fill="none" stroke="#b2ac9f" d="M395.611,-456.678C435.132,-405.229 539.082,-269.906 582.504,-213.38"/>
<polygon fill="#b2ac9f" stroke="#b2ac9f" points="585.38,-215.382 588.696,-205.319 579.829,-211.117 585.38,-215.382"/>
</g>
<!-- _WP_REST_Meta_Fields__update_multi_meta_value&#45;&gt;_delete_metadata -->
<g id="edge20" class="edge"><title>_WP_REST_Meta_Fields__update_multi_meta_value&#45;&gt;_delete_metadata</title>
<path fill="none" stroke="#b2ac9f" d="M366.93,-456.838C350.178,-430.998 321.114,-386.165 302.754,-357.844"/>
<polygon fill="#b2ac9f" stroke="#b2ac9f" points="305.575,-355.762 297.199,-349.275 299.702,-359.569 305.575,-355.762"/>
</g>
</g>

</g>
</svg>
